<svg width="102" height="102" viewBox="0 0 102 102" fill="none" xmlns="http://www.w3.org/2000/svg">
<path d="M91 3H11C6.58172 3 3 6.58172 3 11V91C3 95.4183 6.58172 99 11 99H91C95.4183 99 99 95.4183 99 91V11C99 6.58172 95.4183 3 91 3Z" stroke="#1E1E1E" stroke-width="5" stroke-linejoin="round"/>
<path d="M34.9998 35C34.9998 32.8783 35.8427 30.8435 37.343 29.3432C38.8433 27.8429 40.8781 27 42.9998 27H50.9998V43H42.9998C40.8781 43 38.8433 42.1572 37.343 40.6569C35.8427 39.1566 34.9998 37.1218 34.9998 35ZM34.9998 51C34.9998 48.8783 35.8427 46.8435 37.343 45.3432C38.8433 43.8429 40.8781 43 42.9998 43H50.9998V59H42.9998C40.8781 59 38.8433 58.1572 37.343 56.6569C35.8427 55.1566 34.9998 53.1218 34.9998 51ZM34.9998 67C34.9998 64.8783 35.8427 62.8435 37.343 61.3432C38.8433 59.8429 40.8781 59 42.9998 59H50.9998V67C50.9998 69.1218 50.157 71.1566 48.6567 72.6569C47.1564 74.1572 45.1216 75 42.9998 75C40.8781 75 38.8433 74.1572 37.343 72.6569C35.8427 71.1566 34.9998 69.1218 34.9998 67ZM50.9998 27H58.9998C61.1216 27 63.1564 27.8429 64.6567 29.3432C66.157 30.8435 66.9998 32.8783 66.9998 35C66.9998 37.1218 66.157 39.1566 64.6567 40.6569C63.1564 42.1572 61.1216 43 58.9998 43H50.9998V27Z" stroke="#1E1E1E" stroke-width="5" stroke-linejoin="round"/>
<path d="M50.9998 51C50.9998 48.8783 51.8427 46.8435 53.343 45.3432C54.8433 43.8429 56.8781 43 58.9998 43C61.1216 43 63.1564 43.8429 64.6567 45.3432C66.157 46.8435 66.9998 48.8783 66.9998 51C66.9998 53.1218 66.157 55.1566 64.6567 56.6569C63.1564 58.1572 61.1216 59 58.9998 59C56.8781 59 54.8433 58.1572 53.343 56.6569C51.8427 55.1566 50.9998 53.1218 50.9998 51Z" stroke="#1E1E1E" stroke-width="5" stroke-linejoin="round"/>
</svg>
